<?xml version="1.0" encoding="utf-8"?>
<!-- Generator: Adobe Illustrator 16.0.0, SVG Export Plug-In . SVG Version: 6.00 Build 0)  -->
<!DOCTYPE svg PUBLIC "-//W3C//DTD SVG 1.1//EN" "http://www.w3.org/Graphics/SVG/1.1/DTD/svg11.dtd">
<svg version="1.1" id="Layer_1" xmlns="http://www.w3.org/2000/svg" xmlns:xlink="http://www.w3.org/1999/xlink" x="0px" y="0px"
	 width="120.88px" height="16.983px" viewBox="44.474 10.376 120.88 16.983" enable-background="new 44.474 10.376 120.88 16.983"
	 xml:space="preserve">
<g>
	<path fill="#4E4E4E" d="M56.17,25.962c0,0.629-0.513,1.001-1.026,1.001c-0.326,0-0.605-0.163-0.838-0.513l-7.828-11.765v11.277
		c0,0.652-0.489,1.001-1.025,1.001c-0.489,0-0.979-0.374-0.979-1.001V11.377c0-0.651,0.513-1.001,1.025-1.001
		c0.327,0,0.606,0.14,0.839,0.489l7.828,11.765V11.377c0-0.675,0.489-1.001,0.978-1.001c0.536,0,1.026,0.35,1.026,1.001V25.962z"/>
	<path fill="#4E4E4E" d="M69.638,21.793h-8.62c0.325,2.188,1.724,3.586,3.773,3.586c1.048,0,2.074-0.372,2.772-1.21
		c0.187-0.233,0.49-0.35,0.77-0.35c0.513,0,1.002,0.396,1.002,1.002c0,1.352-2.843,2.538-4.544,2.538
		c-3.751,0-5.847-3.097-5.847-6.592c0-3.473,2.096-6.57,5.847-6.57c3.798,0,5.825,3.098,5.825,6.57
		C70.616,21.281,70.242,21.793,69.638,21.793 M64.791,16.176c-2.19,0-3.472,1.608-3.773,3.612h7.548
		C68.24,17.551,66.841,16.176,64.791,16.176"/>
	<path fill="#4E4E4E" d="M88.557,15.967l-3.588,10.181c-0.188,0.514-0.513,0.815-1.025,0.815c-0.488,0-0.769-0.211-0.979-0.815
		l-2.726-7.688l-2.748,7.688c-0.21,0.56-0.513,0.815-1.002,0.815c-0.466,0-0.792-0.256-0.979-0.815L71.944,15.99
		c-0.047-0.14-0.07-0.303-0.07-0.443c0-0.582,0.513-0.956,1.002-0.956c0.373,0,0.77,0.187,0.933,0.652l2.703,7.781l2.749-7.618
		c0.117-0.35,0.396-0.744,0.954-0.744c0.514,0,0.84,0.278,1.003,0.744l2.726,7.618l2.726-7.757c0.163-0.467,0.513-0.676,0.954-0.676
		c0.536,0,1.003,0.396,1.003,0.978C88.626,15.688,88.602,15.826,88.557,15.967"/>
	<path fill="#4E4E4E" d="M94.568,27.36c-1.281,0-3.4-0.372-4.496-1.747c-0.139-0.188-0.232-0.396-0.232-0.629
		c0-0.585,0.42-1.025,1.05-1.025c0.278,0,0.513,0.163,0.767,0.419c0.769,0.77,1.864,1.047,2.912,1.047
		c2.099,0,2.773-0.769,2.773-1.815c0-2.983-7.106-1.142-7.106-5.94c0-2.539,2.376-3.471,4.589-3.471
		c1.258,0,4.216,0.628,4.216,1.933c0,0.582-0.44,1.024-0.999,1.024c-0.21,0-0.467-0.091-0.699-0.278
		c-0.63-0.49-1.584-0.746-2.518-0.746c-1.933,0-2.607,0.768-2.607,1.538c0,2.771,7.128,0.978,7.128,5.94
		C99.346,26.359,97.039,27.36,94.568,27.36"/>
	<path fill="#4E4E4E" d="M118.729,26.988c-0.279,0-0.559-0.141-0.77-0.421l-4.846-6.778h-3.003v6.174
		c0,0.652-0.489,1.001-1.025,1.001c-0.488,0-0.979-0.349-0.979-0.979V11.377c0-0.419,0.28-1.001,0.979-1.001h6.033
		c2.051,0,4.683,1.607,4.683,4.683c0,2.446-1.842,4.496-4.287,4.707l4.077,5.613c0.162,0.212,0.21,0.396,0.21,0.605
		C119.802,26.544,119.313,26.988,118.729,26.988 M115.098,12.357h-4.985v5.45h4.963c1.513,0,2.727-1.235,2.727-2.749
		C117.8,13.474,116.449,12.357,115.098,12.357"/>
	<path fill="#4E4E4E" d="M127.421,27.36c-3.752,0-5.848-3.075-5.848-6.592c0-3.496,2.096-6.57,5.848-6.57
		c3.754,0,5.85,3.075,5.85,6.57C133.271,24.284,131.175,27.36,127.421,27.36 M127.421,16.176c-2.328,0-3.842,1.818-3.842,4.592
		c0,2.794,1.513,4.611,3.842,4.611c2.354,0,3.846-1.816,3.846-4.611C131.267,17.994,129.775,16.176,127.421,16.176"/>
	<path fill="#4E4E4E" d="M141.123,27.36c-3.752,0-5.848-3.075-5.848-6.592c0-3.496,2.096-6.57,5.848-6.57s5.848,3.075,5.848,6.57
		C146.971,24.284,144.875,27.36,141.123,27.36 M141.123,16.176c-2.329,0-3.843,1.818-3.843,4.592c0,2.794,1.513,4.611,3.843,4.611
		c2.354,0,3.845-1.816,3.845-4.611C144.968,17.994,143.477,16.176,141.123,16.176"/>
	<path fill="#4E4E4E" d="M165.354,25.962c0,0.652-0.488,1.001-1.025,1.001c-0.488,0-0.979-0.349-0.979-0.979v-7.337
		c0-1.352-1.118-2.471-2.445-2.471c-1.376,0-2.471,1.119-2.471,2.447v7.339c0,0.652-0.465,1.001-1.001,1.001
		c-0.513,0-0.979-0.349-0.979-0.979v-7.337c0-1.352-1.118-2.471-2.471-2.471s-2.47,1.119-2.47,2.447v7.339
		c0,0.652-0.488,1.001-1.025,1.001c-0.488,0-0.978-0.349-0.978-0.979V15.57c0-0.674,0.512-1.001,1.024-1.001
		c0.327,0,0.653,0.14,0.84,0.443c0.721-0.514,1.631-0.815,2.584-0.815c1.399,0,2.657,0.629,3.473,1.654
		c0.815-1.025,2.05-1.654,3.447-1.654c2.47,0,4.473,1.979,4.473,4.427v7.339H165.354z"/>
</g>
</svg>
