<svg id="Layer_1" xmlns="http://www.w3.org/2000/svg" viewBox="0 0 367 100"><style>.st0{fill:#475e67}.st1{fill:url(#SVGID_1_)}.st2{fill:#fff}.st3{fill:url(#SVGID_2_)}.st4{fill:url(#SVGID_3_)}.st5{fill:url(#SVGID_4_)}.st6{fill:#323232}</style><title>NewsRoom_logo_v2</title><g id="Page-1"><g id="NewsRoom_logo_v2"><g id="NewsRoom-Copy-_x2B_-Imported-Layers-Copy-2" transform="translate(66 23)"><path id="News-Room" class="st0" d="M122.3 74.5V50.7c0-.7-.5-1-1.1-1-.5 0-1 .4-1 1v20.5l-14.2-21c-.3-.4-.6-.5-.9-.5-.5 0-1 .4-1 1.1v23.9c0 .7.5 1 1.1 1 .5 0 1-.4 1-1V54l14.2 21c.3.4.6.6.9.6.5 0 1-.4 1-1.1zm23.1-8.6c0-5.4-3.3-10.3-9.1-10.3s-9.1 4.8-9.1 10.3c0 5.5 3.3 10.3 9.1 10.3 2.5 0 5-.9 6.7-2.9l.4-.5c.1-.2.2-.4.2-.6 0-.5-.5-1.1-1.1-1.1-.3 0-.6.1-.9.5-1.1 1.6-3.4 2.5-5.4 2.5-4 0-6.7-3-7-7.2h15.1c.6 0 1.1-.5 1.1-1zm-2.1-1h-14c.3-3.8 2.6-7.2 7-7.2 4 0 6.7 3 7 7.2zm4.2-7.6c0 .1 0 .3.1.4l5.9 17.1c.2.5.6.8 1.1.8.6 0 .9-.4 1-.7l4.8-14.3 4.8 14.3c.2.6.5.8 1 .8s.8-.2 1-.8l5.9-17.1c0-.1.1-.3.1-.4 0-.6-.4-1.1-1-1.1-.4 0-.8.2-1 .7l-5 14.4-4.8-14.2c-.2-.7-.5-.8-1-.8-.4 0-.8.1-1.1.8l-4.8 14.2-4.9-14.4c-.2-.6-.6-.8-1-.8-.6 0-1.1.4-1.1 1.1zm42.7 13.4c0-7.5-11.9-4.8-11.9-9.9 0-1.8 1.7-3.1 4.9-3.1 1.6 0 3.4.4 4.8 1.6.3.2.4.3.7.3.6 0 1.1-.4 1.1-1.1 0-.2-.1-.5-.3-.7-1.5-1.5-4.4-2.1-6.3-2.1-3.3 0-7 1.4-7 5.1 0 7.3 11.9 4.4 11.9 9.9 0 2.4-1.8 3.6-5.3 3.6-1.8 0-4.2-.4-5.4-2-.3-.3-.5-.5-.9-.5-.5 0-1 .5-1 1.1 0 .1 0 .4.2.6 1.3 2.1 5 2.9 7.1 2.9 3.8-.1 7.4-1.6 7.4-5.7zm33.1 3.8c0-.2-.1-.4-.3-.7l-6.9-9.5c4-.2 7.1-3.4 7.1-7.4s-3.3-7.3-7.4-7.3H206c-.5 0-1.1.5-1.1 1v23.9c0 .7.5 1 1.1 1 .5 0 1-.4 1-1V64.4h6.5l7.8 10.8c.3.4.6.5.9.5.7-.1 1.1-.6 1.1-1.2zM221.2 57c0 2.9-2.4 5.3-5.3 5.3H207V51.7h8.8c2.6 0 5.4 2 5.4 5.3zm24.3 8.9c0-5.5-3.3-10.3-9.1-10.3s-9.1 4.8-9.1 10.3c0 5.5 3.3 10.3 9.1 10.3s9.1-4.8 9.1-10.3zm-2 0c0 4.7-2.7 8.2-7.1 8.2-4.3 0-7.1-3.5-7.1-8.2s2.8-8.2 7.1-8.2 7.1 3.5 7.1 8.2zm24 0c0-5.5-3.3-10.3-9.1-10.3s-9.1 4.8-9.1 10.3c0 5.5 3.3 10.3 9.1 10.3s9.1-4.8 9.1-10.3zm-2.1 0c0 4.7-2.7 8.2-7.1 8.2-4.3 0-7.1-3.5-7.1-8.2s2.8-8.2 7.1-8.2c4.4 0 7.1 3.5 7.1 8.2zm31.3 8.6V62.3c0-3.7-2.9-6.7-6.7-6.7-2.4 0-4.4 1.2-5.6 3.1-1.3-1.9-3.3-3.1-5.7-3.1-1.8 0-3.4.7-4.6 1.9v-.2c0-.7-.5-1-1-1s-1.1.4-1.1 1v17.3c0 .7.5 1 1.1 1 .5 0 1-.4 1-1V62.3c0-2.5 2.1-4.6 4.7-4.6 2.5 0 4.6 2.1 4.6 4.6v12.2c0 .7.5 1 1.1 1 .5 0 1-.4 1-1V62.3c0-2.5 2.1-4.6 4.7-4.6 2.5 0 4.6 2.1 4.6 4.6v12.2c0 .7.5 1 1 1s.9-.3.9-1z"/></g></g></g><linearGradient id="SVGID_1_" gradientUnits="userSpaceOnUse" x1="65.003" y1="72.096" x2="15.496" y2="-.206"><stop offset="0" stop-color="#BE0000"/><stop offset=".39" stop-color="#DE0000"/><stop offset=".768" stop-color="#F60000"/><stop offset="1" stop-color="#FF0000"/></linearGradient><path class="st1" d="M28.1 72.4h74.2L42.8 12.6C34.9 4.7 24.1 0 12.9 0H.5l.9 2.4 4.1 10.8 22.6 59.2z"/><path class="st2" d="M5.5 13.2c8.2 13.9 29.5 15.4 31.8 37 .1.9.8 1.6 1.7 1.7 12.3 1.9 24.3 7 34.7 15.3.1.1.1.1.2.1s.2 0 .3-.1c.1-.1.2-.4 0-.5-7.2-7.6-16-13.6-25.9-17.6l-3-1.2c-1.5-.6-2.6-2.2-2.6-3.9.2-6.4 15.4-5.1 17-8.2l.3-.5c-3.1-2.7-6.9-4.7-11-5.8 0 .2-.1.9.7 2.3.9 1.5-1 3.8-3.8 1.3l-.2-.2C25 13.8 9.6 23.6 1.4 2.4l4.1 10.8z"/><linearGradient id="SVGID_2_" gradientUnits="userSpaceOnUse" x1="51.323" y1="39.457" x2="51.99" y2="31.829"><stop offset=".65" stop-color="#FFFFFF" stop-opacity="0"/><stop offset=".729" stop-color="#E0E0E0" stop-opacity="0.2617"/><stop offset=".815" stop-color="#C5C5C5" stop-opacity="0.5493"/><stop offset=".891" stop-color="#B5B5B5" stop-opacity="0.8047"/><stop offset=".95" stop-color="#AFAFAF"/></linearGradient><path class="st3" d="M55.1 34.8s-3.4.2-5.5-3.2c.6 1-.1 2.4-1.4 2.4v5.1c2.2-.6 4.8-1 6.9-1.5v-2.8z"/><linearGradient id="SVGID_3_" gradientUnits="userSpaceOnUse" x1="41.52" y1="59.585" x2="73.624" y2="59.585"><stop offset="0" stop-color="#FFFFFF" stop-opacity="0"/><stop offset=".084" stop-color="#F1F1F1" stop-opacity="9.323078e-02"/><stop offset=".292" stop-color="#D4D4D4" stop-opacity="0.3246"/><stop offset=".499" stop-color="#C0C0C0" stop-opacity="0.5548"/><stop offset=".703" stop-color="#B3B3B3" stop-opacity="0.7814"/><stop offset=".9" stop-color="#AFAFAF"/></linearGradient><path class="st4" d="M41.5 52.3c11.4 2.2 22.4 7.1 32.1 14.9C52 48.8 42.2 52.1 41.5 52.3z"/><linearGradient id="SVGID_4_" gradientUnits="userSpaceOnUse" x1="1.423" y1="26.289" x2="37.31" y2="26.289"><stop offset=".25" stop-color="#FFFFFF" stop-opacity="0"/><stop offset=".462" stop-color="#EDEDED" stop-opacity="0.282"/><stop offset=".886" stop-color="#BDBDBD" stop-opacity="0.848"/><stop offset="1" stop-color="#AFAFAF"/></linearGradient><path class="st5" d="M9.9 14.2C6.5 11.8 3.7 8.3 1.4 2.4l4.1 10.8C13.7 27.1 35 28.6 37.3 50.1 35 22.6 22.9 26.7 9.9 14.2z"/><g><path class="st6" d="M109.8 59.1c-14.7 0-24-7.6-24-17.2 0-9.7 9.9-17.2 24.4-17.2s24.4 7.5 24.4 16.8c0 4.2-1.9 7.6-5.4 10.5h8.6l-2.1 3.5c-1.3 2.2-2.9 3.6-6.4 3.6h-19.5zm.4-7.8c8 0 14.8-4 14.8-9.4s-6.7-9.4-14.8-9.4c-8 0-14.8 4-14.8 9.4.1 5.4 6.8 9.4 14.8 9.4zm63.7 2h-23.1l-3.3 5.8H138l16-27.7c1.3-2.2 3.1-3.9 6.7-3.9h3.6c3.6 0 5.4 1.7 6.7 3.9l16 27.7h-9.8l-3.3-5.8zm-19.1-7H170l-7.1-12.6c-.2-.3-.3-.4-.5-.4-.3 0-.4.1-.5.4l-7.1 12.6zm77.8-18.8v31.6H224l-25.1-21v21h-8.6V27.5h5.4c2.7 0 4.1.7 5.7 2.1L224 48.4V27.5h8.6zm30.5 7.1v24.5h-8.6V34.6H237v-7.1h43.6v7.1h-17.5zm46 18.7H286l-3.3 5.8h-9.6l16-27.7c1.3-2.2 3.1-3.9 6.7-3.9h3.6c3.6 0 5.4 1.7 6.7 3.9l16 27.7h-9.8l-3.2-5.8zm-19.2-7h15.3l-7.1-12.6c-.2-.3-.3-.4-.5-.4-.3 0-.4.1-.5.4l-7.2 12.6zm35.2 10.5l-.8-.3 2.2-6.9c6.2 2 12.7 2.8 18.7 2.8 9.7 0 12.1-1.1 12.1-2.4 0-.5-.3-.9-1.1-1.1-1-.3-3.7-.9-11.6-2.2-8.8-1.4-12.8-2.2-15.7-3.5-2.9-1.3-4.7-3.5-4.7-6.7 0-2.4 1.2-4.3 3.1-5.9 3.4-2.6 9.1-3.7 15.4-3.7 8.1 0 14.9.7 22.4 2.5l.7.2-1.8 6.7c-8.4-1.8-13.1-2.3-19.5-2.4-4.5 0-7.6.3-9.3.8-.9.3-1.3.7-1.3 1.2s.3.9 1.2 1.2c1 .3 2.7.7 11.3 2.1 9.4 1.5 12.4 2.2 15 3.2 3.5 1.3 5.6 3.8 5.6 7 0 3.9-3 6.8-8.3 8.4-3.2 1-7.6 1.5-12.5 1.5-7.7.2-15.8-.8-21.1-2.5z"/></g></svg>